Coordinates
version=1
nRows=8
nColumns=40
inDegrees=yes

Units are S.I. units (second, meters, Newtons, ...)
Angles are in degrees.

endheader
time	pelvis_tilt	pelvis_list	pelvis_rotation	pelvis_tx	pelvis_ty	pelvis_tz	hip_flexion_r	hip_adduction_r	hip_rotation_r	knee_angle_r	knee_angle_r_beta	ankle_angle_r	subtalar_angle_r	mtp_angle_r	hip_flexion_l	hip_adduction_l	hip_rotation_l	knee_angle_l	knee_angle_l_beta	ankle_angle_l	subtalar_angle_l	mtp_angle_l	lumbar_extension	lumbar_bending	lumbar_rotation	arm_flex_r	arm_add_r	arm_rot_r	elbow_flex_r	pro_sup_r	wrist_flex_r	wrist_dev_r	arm_flex_l	arm_add_l	arm_rot_l	elbow_flex_l	pro_sup_l	wrist_flex_l	wrist_dev_l
     17.81750000	     -3.37761911	     -3.61971911	     -1.73727272	      1.03856296	      0.93460555	      0.43336062	     38.40759192	     -7.29197352	     -5.39328555	     63.10573399	     63.10573399	     -0.56166555	    -16.18660862	      3.31124833	      9.79422356	     -4.47172655	    -11.22539824	     17.38153028	     17.38153028	     12.32095259	     -8.46051960	     -6.09931599	    -13.34077039	      4.72297287	      1.17920834	     -1.17364628	    -14.49234218	     -5.22471486	     72.76682756	     45.61559512	      0.00000000	      0.00000000	     13.95454588	    -13.00584954	     -1.32551026	     50.57184991	     46.97281936	      0.00000000	      0.00000000
     17.82871429	     -3.49123074	     -3.70228074	     -1.93519199	      1.03775627	      0.93440955	      0.43373600	     38.64016273	     -7.04757872	     -5.39145429	     59.74078988	     59.74078988	     -0.89721406	    -15.78621151	      2.45513646	      9.15736450	     -4.52313463	    -11.34261000	     16.93114724	     16.93114724	     12.41717404	     -8.46013329	     -6.50922600	    -13.30904905	      4.75921326	      0.62940312	     -0.71285660	    -13.73366684	     -5.96442256	     65.20022986	     45.87566056	      0.00000000	      0.00000000	     14.27360947	    -14.07159422	     -1.35311379	     53.86567809	     47.01907157	      0.00000000	      0.00000000
     17.83992857	     -3.51763172	     -3.85040524	     -2.18271305	      1.03711747	      0.93418811	      0.43423810	     38.58185738	     -6.69508121	     -5.47788940	     56.03278975	     56.03278975	     -0.83960969	    -15.12320375	      2.47101893	      8.42794974	     -4.64937944	    -11.45666495	     16.55129536	     16.55129536	     12.70407435	     -8.49470421	     -6.61567879	    -13.47426154	      4.94493211	      1.41334380	     -2.34832299	    -14.22569920	     -5.83941442	     61.87592860	     45.96942756	      0.00000000	      0.00000000	     15.76851916	    -14.10172820	     -1.66721697	     56.00490041	     47.08804588	      0.00000000	      0.00000000
     17.85114286	     -3.65480673	     -3.84132967	     -2.42488672	      1.03650636	      0.93383399	      0.43477061	     38.41692342	     -6.48289322	     -5.62064092	     51.84152961	     51.84152961	     -1.31156050	    -14.54999610	      1.05855210	      7.78917023	     -4.60499782	    -11.64025672	     16.07918431	     16.07918431	     12.75987944	     -8.49470645	     -6.96179474	    -13.46180962	      4.90512875	      0.72241099	     -1.22065815	    -13.54033231	     -6.36232836	     53.28751974	     46.24613528	      0.00000000	      0.00000000	     15.64131370	    -15.16970678	     -2.25765272	     60.01987779	     47.19820569	      0.00000000	      0.00000000
     17.86235714	     -3.75452080	     -3.98357561	     -2.64603127	      1.03611581	      0.93343437	      0.43532875	     37.97552666	     -6.13847830	     -6.03652270	     47.36194041	     47.36194041	     -1.12838779	    -13.38767664	      1.23192297	      7.10581937	     -4.72355603	    -11.76736436	     15.65730813	     15.65730813	     13.01960687	     -8.44162652	     -7.03021399	    -13.54436559	      5.17597582	      1.41000015	     -2.91394946	    -13.98690985	     -6.27217205	     50.72440578	     46.31718791	      0.00000000	      0.00000000	     16.96743300	    -15.08832481	     -2.58971380	     61.92538005	     47.26456116	      0.00000000	      0.00000000
     17.87357143	     -3.89569078	     -3.83386087	     -2.94235669	      1.03594411	      0.93279946	      0.43610171	     37.44094379	     -5.96299931	     -6.33460790	     42.59848346	     42.59848346	     -1.42414775	    -12.25165445	     -0.09761311	      6.37757559	     -4.53198971	    -12.10687473	     15.08624640	     15.08624640	     13.14244752	     -8.24978385	     -7.36794219	    -13.45373961	      4.94607117	      1.02377997	     -1.62683336	    -13.40370058	     -6.94197153	     41.82247680	     46.63375722	      0.00000000	      0.00000000	     16.85371999	    -16.09097032	     -3.04377540	     66.16884437	     47.37398884	      0.00000000	      0.00000000
     17.88478571	     -3.92896740	     -3.84798235	     -3.16974727	      1.03604501	      0.93217389	      0.43692134	     36.54072888	     -5.63961730	     -6.99407982	     37.63725307	     37.63725307	     -1.13376816	    -10.51664327	      0.15852702	      5.60511940	     -4.52193538	    -12.32770546	     14.69856356	     14.69856356	     13.40157801	     -8.17902315	     -7.45187751	    -13.53811550	      5.06106570	      1.71309187	     -3.15868768	    -13.66537105	     -6.94906285	     39.39783921	     46.70400561	      0.00000000	      0.00000000	     18.03394159	    -15.98958004	     -3.56402196	     68.35772177	     47.45916032	      0.00000000	      0.00000000
     17.89600000	     -4.00380521	     -3.72084297	     -3.38145200	      1.03631635	      0.93131779	      0.43782633	     35.55348783	     -5.40607749	     -7.75181512	     32.58137277	     32.58137277	     -1.14002032	     -8.46528140	     -0.08259603	      4.80553480	     -4.35648207	    -12.58936436	     14.17033217	     14.17033217	     13.62465337	     -7.92531432	     -7.73505496	    -13.53871112	      4.91106708	      1.02792910	     -1.93242638	    -13.18424648	     -7.82558677	     31.88318642	     46.97774777	      0.00000000	      0.00000000	     17.55341946	    -16.70828848	     -5.02501034	     72.85739704	     47.65742917	      0.00000000	      0.00000000
